# xmcd
#
# Track frame offsets: 
#        150
#        13181
#        31590
#        51351
#        70304
#        86798
#        104255
#        120805
#        138092
#        152112
#        166748
#
# Disc length: 2402 seconds
#
# Revision: 0
# Processed by: cddbd v1.5.2PL0 Copyright (c) Steve Scherf et al.
# Submitted via: ExactAudioCopyFreeDBPlugin 1.0
#
DISCID=8109600b
DTITLE=Claude Diamond - Highway Of Life
DYEAR=2005
DGENRE=Country
TTITLE0=Little Copper Wire
TTITLE1=Highway of Life
TTITLE2=Nashville Train
TTITLE3=Her Old Address
TTITLE4=Out On the Salt
TTITLE5=Someone I Need
TTITLE6=Dance With the Hurricane
TTITLE7=Talking to Strangers
TTITLE8=Spend a Little Time With Me
TTITLE9=I Waited Too Long
TTITLE10=Bluesy Blues
EXTD=
EXTT0=
EXTT1=
EXTT2=
EXTT3=
EXTT4=
EXTT5=
EXTT6=
EXTT7=
EXTT8=
EXTT9=
EXTT10=
PLAYORDER=
